<svg xmlns="http://www.w3.org/2000/svg" width="33.183" height="28.548" viewBox="22.836 17.961 33.183 28.548"><g data-name="Group 69"><g data-name="Group 65"><g data-name="Group 64"><path d="m39.517 46.509-.111-.001-.067.001c-4.216 0-7.647-1.65-9.937-4.774a6.194 6.194 0 0 1-2.501-.759 6.971 6.971 0 0 1-1.516-1.127 7.478 7.478 0 0 1-.471-.501c-1.34-1.56-2.078-3.635-2.078-5.843 0-.956.14-1.895.415-2.789l.012-.041c.069-.221.153-.456.248-.692a8.56 8.56 0 0 1 1.067-1.905 7.995 7.995 0 0 1 1.196-1.272 6.76 6.76 0 0 1 1.905-1.136c.513-.197 1.039-.348 1.548-.495.402-.115.819-.235 1.212-.374.982-.347 2.114-.795 3.076-1.492.116-.084.251-.186.384-.303-.518.174-1.199.398-2.063.674-1.86.596-2.368.538-2.654.224a.593.593 0 0 1-.061-.714c2.272-3.372 5.901-5.229 10.218-5.229h.178c4.216 0 7.647 1.649 9.937 4.774a6.168 6.168 0 0 1 2.133.571c.47.22.926.505 1.354.847.137.11.27.224.402.344a8.03 8.03 0 0 1 1.714 2.306c.329.658.579 1.368.741 2.109a9.65 9.65 0 0 1 .128 3.388 9.394 9.394 0 0 1-.331 1.49 8.918 8.918 0 0 1-.928 2.031 7.967 7.967 0 0 1-1.585 1.842 6.72 6.72 0 0 1-1.905 1.136c-.514.198-1.04.35-1.55.496-.402.116-.817.235-1.211.374-.981.346-2.113.795-3.075 1.491a5.52 5.52 0 0 0-.385.304c.519-.174 1.2-.398 2.064-.674 1.856-.595 2.555-.604 2.77-.033a.587.587 0 0 1-.055.522 14.14 14.14 0 0 1-.28.395c-2.31 3.163-5.747 4.835-9.938 4.835Zm-.089-1.023.089.001c3.667 0 6.699-1.384 8.803-4.009-.247.06-.57.151-.988.285-2.332.747-3.347 1.115-3.357 1.119a.512.512 0 0 1-.561-.146c-.306-.354.062-1.044.066-1.051.297-.607.863-1.063 1.261-1.352 1.068-.774 2.285-1.257 3.335-1.628.422-.149.852-.272 1.269-.392.51-.147.992-.285 1.463-.467a5.72 5.72 0 0 0 1.763-1.094 6.646 6.646 0 0 0 1.228-1.473 7.24 7.24 0 0 0 .262-.453 7.926 7.926 0 0 0 .853-2.667 8.608 8.608 0 0 0 .028-2.155 8.075 8.075 0 0 0-.8-2.744 7.008 7.008 0 0 0-1.494-2.013 6.86 6.86 0 0 0-.345-.296 5.827 5.827 0 0 0-1.43-.842 5.171 5.171 0 0 0-1.713-.369.511.511 0 0 1-.398-.216c-2.089-2.971-5.286-4.541-9.245-4.541l-.089.001-.054-.001h-.001c-3.713 0-6.74 1.383-8.84 4.01.247-.061.571-.151.99-.286 2.332-.747 3.348-1.115 3.357-1.119a.511.511 0 0 1 .56.146c.308.354-.061 1.044-.064 1.051-.298.607-.863 1.064-1.262 1.352-1.067.773-2.284 1.256-3.334 1.628-.423.149-.854.273-1.271.392-.51.147-.991.285-1.462.467a5.735 5.735 0 0 0-1.615.964 6.645 6.645 0 0 0-1.035 1.102 7.51 7.51 0 0 0-.938 1.676c-.085.211-.16.419-.222.618a8.54 8.54 0 0 0-.38 2.521c0 1.964.652 3.803 1.832 5.177.13.152.268.298.408.434a5.974 5.974 0 0 0 1.603 1.122 5.183 5.183 0 0 0 1.996.492c.159.006.306.086.397.216 2.09 2.971 5.287 4.541 9.246 4.541l.089-.001Zm-11.436-7.082a.506.506 0 0 1-.221-.05c-1.532-.733-2.521-2.531-2.521-4.581 0-1.565.604-3.048 1.617-3.968a.512.512 0 0 1 .851.434 18.465 18.465 0 0 0-.107 1.996c0 1.968.291 3.816.864 5.493a.51.51 0 0 1-.483.676Zm23.653-3.607a.512.512 0 0 1-.508-.566c.072-.651.108-1.323.108-1.996 0-1.969-.291-3.817-.865-5.493a.51.51 0 0 1 .704-.626c1.532.733 2.522 2.531 2.522 4.581 0 1.564-.605 3.048-1.617 3.968a.513.513 0 0 1-.344.132Z" fill="#fff" fill-rule="evenodd" data-name="Path 34"/></g></g><g data-name="Group 68"><g data-name="Group 66"><path d="M45.44 29.179a3.793 3.793 0 1 1 .002 7.586 3.793 3.793 0 0 1-.001-7.586Z" fill="#fff" fill-rule="evenodd" data-name="Path 35"/></g><g data-name="Group 67"><path d="M33.415 36.765a3.793 3.793 0 1 1 0-7.586 3.793 3.793 0 0 1 0 7.586Z" fill="#fff" fill-rule="evenodd" data-name="Path 36"/></g></g></g></svg>