<svg xmlns="http://www.w3.org/2000/svg" width="63.009" height="63.009" viewBox="812.968 984.909 63.009 63.009"><g data-name="acces coin"><g data-name="black line"><g data-name="Group 61"><g data-name="Group 60"><path d="M844.472 1047.72c-17.262 0-31.307-14.044-31.307-31.307 0-17.262 14.045-31.307 31.307-31.307 17.263 0 31.308 14.045 31.308 31.307 0 17.263-14.045 31.308-31.308 31.308Z" fill="#ceced2" fill-rule="evenodd" data-name="Path 32"/></g></g></g><g data-name="black line"><g data-name="Group 63"><g data-name="Group 62"><path d="M844.472 1047.918c-17.371 0-31.504-14.133-31.504-31.505 0-17.371 14.133-31.504 31.504-31.504 17.372 0 31.505 14.133 31.505 31.504 0 17.372-14.133 31.505-31.505 31.505Zm0-62.614c-17.154 0-31.109 13.955-31.109 31.109 0 17.154 13.955 31.11 31.109 31.11 17.154 0 31.11-13.956 31.11-31.11s-13.956-31.109-31.11-31.109Z" fill="#cac9d5" fill-rule="evenodd" data-name="Path 33"/></g></g></g><g data-name="Group 69"><g data-name="Group 65"><g data-name="Group 64"><path d="m844.583 1031.418-.111-.001-.067.001c-4.216 0-7.647-1.65-9.937-4.774a6.194 6.194 0 0 1-2.501-.759 6.971 6.971 0 0 1-1.516-1.127 7.478 7.478 0 0 1-.471-.501c-1.34-1.56-2.078-3.635-2.078-5.843 0-.956.14-1.895.415-2.789l.012-.041c.069-.221.153-.456.248-.692a8.56 8.56 0 0 1 1.067-1.905 7.995 7.995 0 0 1 1.196-1.272 6.76 6.76 0 0 1 1.905-1.136c.513-.197 1.04-.348 1.548-.495.402-.115.82-.235 1.212-.374.982-.347 2.114-.795 3.076-1.492.116-.084.251-.186.384-.303-.518.174-1.199.398-2.063.674-1.859.596-2.368.538-2.654.224a.593.593 0 0 1-.061-.714c2.272-3.372 5.901-5.229 10.218-5.229h.178c4.216 0 7.647 1.649 9.937 4.774a6.168 6.168 0 0 1 2.133.571c.47.22.926.505 1.354.847.137.11.271.224.402.344a8.03 8.03 0 0 1 1.714 2.306c.329.658.579 1.368.741 2.109a9.65 9.65 0 0 1 .128 3.388 9.394 9.394 0 0 1-.331 1.49 8.918 8.918 0 0 1-.928 2.031 7.967 7.967 0 0 1-1.585 1.842 6.72 6.72 0 0 1-1.905 1.136c-.514.198-1.04.35-1.55.496-.402.116-.817.235-1.21.374-.982.346-2.114.795-3.076 1.491a5.52 5.52 0 0 0-.385.304c.519-.174 1.2-.398 2.064-.674 1.856-.595 2.555-.604 2.77-.033a.587.587 0 0 1-.055.522 14.14 14.14 0 0 1-.279.395c-2.31 3.163-5.748 4.835-9.939 4.835Zm-.089-1.023.089.001c3.667 0 6.699-1.384 8.803-4.009-.247.06-.57.151-.988.285-2.332.747-3.347 1.115-3.357 1.119a.512.512 0 0 1-.561-.146c-.306-.354.062-1.044.066-1.051.297-.607.863-1.063 1.261-1.352 1.068-.774 2.285-1.257 3.335-1.628.422-.149.852-.272 1.269-.392.51-.147.992-.285 1.463-.467a5.72 5.72 0 0 0 1.763-1.094 6.646 6.646 0 0 0 1.228-1.473 7.24 7.24 0 0 0 .262-.453 7.926 7.926 0 0 0 .853-2.667 8.608 8.608 0 0 0 .028-2.155 8.075 8.075 0 0 0-.8-2.744 7.008 7.008 0 0 0-1.494-2.013 6.86 6.86 0 0 0-.345-.296 5.827 5.827 0 0 0-1.43-.842 5.171 5.171 0 0 0-1.713-.369.511.511 0 0 1-.398-.216c-2.089-2.971-5.286-4.541-9.245-4.541l-.089.001-.054-.001h-.001c-3.713 0-6.74 1.383-8.84 4.01.247-.061.571-.151.991-.286 2.331-.747 3.347-1.115 3.356-1.119a.511.511 0 0 1 .561.146c.307.354-.062 1.044-.065 1.051-.298.607-.863 1.064-1.262 1.352-1.067.773-2.284 1.256-3.334 1.628-.423.149-.854.273-1.271.392-.51.147-.991.285-1.462.467a5.735 5.735 0 0 0-1.615.964 6.645 6.645 0 0 0-1.035 1.102 7.51 7.51 0 0 0-.938 1.676c-.085.211-.16.419-.222.618a8.54 8.54 0 0 0-.379 2.521c0 1.964.651 3.803 1.831 5.177.131.152.268.298.408.434a5.974 5.974 0 0 0 1.603 1.122 5.183 5.183 0 0 0 1.996.492c.159.006.306.086.397.216 2.09 2.971 5.287 4.541 9.246 4.541l.089-.001Zm-11.436-7.082a.506.506 0 0 1-.221-.05c-1.532-.733-2.521-2.531-2.521-4.581 0-1.565.604-3.048 1.617-3.968a.512.512 0 0 1 .851.434 18.465 18.465 0 0 0-.107 1.996c0 1.968.291 3.816.864 5.493a.51.51 0 0 1-.483.676Zm23.653-3.607a.512.512 0 0 1-.508-.566c.072-.651.108-1.323.108-1.996 0-1.969-.291-3.817-.865-5.493a.51.51 0 0 1 .704-.626c1.532.733 2.522 2.531 2.522 4.581 0 1.564-.605 3.048-1.617 3.968a.513.513 0 0 1-.344.132Z" fill="#fff" fill-rule="evenodd" data-name="Path 34"/></g></g><g data-name="Group 68"><g data-name="Group 66"><path d="M850.507 1014.088a3.793 3.793 0 1 1 0 7.586 3.793 3.793 0 0 1 0-7.586Z" fill="#fff" fill-rule="evenodd" data-name="Path 35"/></g><g data-name="Group 67"><path d="M838.481 1021.674a3.793 3.793 0 1 1 0-7.586 3.793 3.793 0 0 1 0 7.586Z" fill="#fff" fill-rule="evenodd" data-name="Path 36"/></g></g></g><g data-name="Group 71"><g data-name="Group 70"><path d="m862.246 1002.627-.037.034a.539.539 0 0 0-.074.73c3.297 4.327 5.058 9.884 4.446 15.854-1.105 10.774-9.971 19.275-20.779 19.96-13.22.838-24.204-9.894-23.785-23.03.373-11.664 9.846-21.18 21.508-21.605a22.217 22.217 0 0 1 11.778 2.86c.266.15.592.05.742-.215l.005-.01a.54.54 0 0 0-.188-.744 23.335 23.335 0 0 0-12.395-3.009c-12.243.455-22.181 10.448-22.57 22.693-.413 13.057 9.902 23.85 22.781 24.216 12.913.366 23.816-9.952 24.135-22.867a23.345 23.345 0 0 0-4.794-14.792.53.53 0 0 0-.773-.075Z" fill="#fff" fill-rule="evenodd" data-name="Path 37"/></g></g></g></svg>