<svg xmlns="http://www.w3.org/2000/svg" width="23.032" height="28.306" viewBox="1783.154 1005.206 23.032 28.306"><g data-name="Group 159"><g data-name="Group 157"><path d="M1802.389 1020.259c-.033-3.574 2.928-5.314 3.063-5.396-1.675-2.445-4.275-2.779-5.187-2.806-2.184-.23-4.3 1.308-5.411 1.308-1.135 0-2.848-1.284-4.692-1.248-2.374.037-4.596 1.412-5.815 3.547-2.514 4.353-.638 10.749 1.77 14.268 1.204 1.722 2.613 3.65 4.455 3.578 1.803-.073 2.476-1.148 4.654-1.148 2.155 0 2.788 1.148 4.669 1.106 1.934-.031 3.152-1.73 4.316-3.47 1.392-1.974 1.952-3.919 1.974-4.019-.047-.015-3.758-1.434-3.796-5.72" fill="#fff" fill-rule="evenodd" data-name="Path 76"/></g><g data-name="Group 158"><path d="M1798.839 1009.742c.969-1.213 1.633-2.861 1.449-4.536-1.403.064-3.16.971-4.169 2.157-.897 1.045-1.695 2.76-1.487 4.369 1.575.117 3.193-.795 4.207-1.99" fill="#fff" fill-rule="evenodd" data-name="Path 77"/></g></g></svg>