<svg xmlns="http://www.w3.org/2000/svg" width="46.776" height="30.499" viewBox="1033.48 1001.213 46.776 30.499"><g data-name="Group 50"><g data-name="Group 44"><path d="m1058.575 1012.433-1.129 2.597c-.054-.226-.036-.404-.045-.511-.024-.289-.035-.58-.07-.867a1.442 1.442 0 0 0-.118-.415c-.146-.325-.427-.453-.764-.339-.16.054-.315.139-.45.24a6.59 6.59 0 0 0-.568.49 7.509 7.509 0 0 1-1.785 1.263 1.623 1.623 0 0 1-.744.17c-2.637-.002-5.274-.001-7.91-.001h-.188c-.019-.086-.034-.161-.052-.236-.069-.286-.24-.397-.527-.324a1.7 1.7 0 0 0-.385.15c-.231.126-.451.273-.68.402-.311.173-.625.339-.94.504a.642.642 0 0 1-.205.068c-.067.008-.164.014-.199-.024-.033-.035-.016-.136.008-.197.037-.097.095-.187.15-.277.324-.535.66-1.064.973-1.605a23.063 23.063 0 0 0 1.532-3.12c.21-.534.315-1.081.313-1.659-.01-2.419-.004-4.838-.004-7.257v-.245h3.283c.003 3.546-.001 7.088.002 10.661.174-.018.322-.027.469-.05.593-.096 1.135-.334 1.666-.603.832-.419 1.632-.889 2.356-1.48.106-.088.224-.162.343-.233a.754.754 0 0 1 .219-.086c.17-.036.277.039.279.212.001.129-.018.264-.056.388-.067.22-.158.433-.235.65-.064.18-.126.361-.181.543a.742.742 0 0 0-.027.215c0 .217.099.351.309.401.114.027.234.036.352.04.198.007.396.002.594.003.058.001.115.007.184.011.056.593-.047 1.186.078 1.813.053-.064.078-.084.09-.11.869-1.863 1.733-3.728 2.606-5.589 1.03-2.195 2.067-4.387 3.103-6.579.123-.261.055-.229.363-.23h2.165c.032.061.065.117.092.175.824 1.746 1.645 3.493 2.475 5.236a.676.676 0 0 1 .018.588c-.096.224-.202.444-.298.668-.048.112-.129.216-.107.346.082.07.159.028.228-.002.133-.057.262-.125.392-.188.048-.023.095-.047.144-.066.173-.066.23-.046.312.125.213.446.422.894.633 1.341l2.555 5.416c.025.054.048.108.085.192-.085.005-.153.012-.221.012-.896 0-1.793.002-2.689-.001a1.847 1.847 0 0 0-.661.097c-.031.011-.064.024-.096.024-.388-.001-.698.194-.974.43-.335.286-.647.6-.961.909-.263.259-.511.532-.774.791-.091.09-.19.186-.34.177-.091-.1-.062-.215-.036-.32.089-.358.18-.715.283-1.069.279-.949.651-1.865 1.015-2.784a.788.788 0 0 0 .022-.52c-.052-.188-.168-.312-.365-.345a1.441 1.441 0 0 0-.236-.023c-1.522-.002-3.045-.002-4.568-.002-.026 0-.051.004-.103.009Zm2.971-6.381-1.666 3.563h2.404c.066 0 .133-.002.197.008.115.018.148.068.116.18-.022.078-.057.153-.087.23l.036.02c.115-.167.231-.333.344-.501.121-.179.126-.351.029-.555-.429-.904-.842-1.815-1.262-2.724-.027-.059-.058-.116-.111-.221Z" fill="#cac9d5" fill-rule="evenodd" data-name="Path 21"/></g><g data-name="Group 45"><path d="M1033.48 1015.87c.011-.123.004-.202.027-.271.105-.311.114-.634.114-.953.004-4.383.003-8.765.003-13.147v-.266c.073-.007.13-.016.187-.016 1.687 0 3.374-.011 5.06.004 1.024.009 1.965.301 2.769.954.785.636 1.219 1.473 1.363 2.465.168 1.16-.125 2.193-.862 3.103-.02.024-.037.051-.063.088l.154.128a3.838 3.838 0 0 1 1.315 2.019c.085.308.063.614-.005.919a7.33 7.33 0 0 1-.499 1.455c-.272.593-.581 1.167-.928 1.72-.378.602-.868 1.109-1.368 1.608-.077.076-.16.156-.301.168-.017-.05-.038-.096-.046-.144-.01-.058-.007-.118-.013-.177-.028-.252-.141-.38-.392-.425a1.997 1.997 0 0 0-.354-.028c-1.45-.004-2.9-.007-4.349-.005a.833.833 0 0 0-.345.062c-.28.132-.55.284-.821.431-.127.069-.247.152-.376.218-.067.035-.145.049-.27.09Zm2.708-2.872.038.047c.065-.019.138-.025.195-.058.149-.085.29-.181.435-.273.167-.105.331-.214.502-.313.191-.112.398-.163.623-.158.243.005.488.002.731-.015.337-.025.664-.101.959-.277.305-.183.531-.431.624-.783.17-.646-.11-1.31-.692-1.64a1.717 1.717 0 0 0-.85-.226c-.573-.005-1.146-.003-1.719-.002-.051 0-.102.008-.175.015v.221c0 .58-.007 1.16.003 1.739a1.43 1.43 0 0 1-.17.701c-.137.263-.268.528-.4.793-.038.075-.069.152-.104.229Zm.671-6.217c.583-.002 1.136.047 1.685-.046.161-.027.323-.07.474-.132.461-.188.756-.521.814-1.028.062-.538-.072-1.007-.525-1.348a1.782 1.782 0 0 0-.871-.345.572.572 0 0 0-.321.055c-.167.088-.318.208-.474.317-.173.12-.342.245-.517.36-.063.042-.149.104-.213.035-.038-.042-.034-.135-.026-.202.01-.091.047-.178.064-.268a.853.853 0 0 0 .013-.214c-.003-.033-.044-.063-.067-.094-.11.273-.212.528-.317.781-.097.233-.07.438.128.606.116.097.154.224.153.369v1.154Z" fill="#cac9d5" fill-rule="evenodd" data-name="Path 22"/></g><g data-name="Group 46"><path d="M1046.12 1015.548h.226c1.174 0 2.347.002 3.52-.004.144 0 .222.051.299.168.83 1.276 1.667 2.548 2.502 3.821.036.054.074.106.12.171.04-.053.074-.091.1-.134.328-.526.667-1.045.977-1.58a25.326 25.326 0 0 1 1.669-2.544c.357-.472.68-.971 1.019-1.458.136-.194.273-.387.412-.58.029-.04.068-.074.109-.119.09.148.107.301.101.45-.011.256-.039.511-.063.767-.014.144-.042.287-.05.432a1.25 1.25 0 0 0 .021.293c.03.158.131.258.288.29.089.018.183.025.274.025.527.003 1.055.002 1.582.002h.257c-.052.083-.085.142-.124.198-.87 1.24-1.745 2.479-2.611 3.722-.634.908-1.274 1.81-1.966 2.676-.341.426-.638.889-.943 1.342-.352.523-.588 1.105-.804 1.693-.107.291-.119.607-.095.918.016.194.13.241.277.111.112-.1.212-.217.303-.337.26-.34.505-.692.77-1.028a2.648 2.648 0 0 1 1.036-.805c.136-.059.288-.092.436-.112.153-.022.282.047.378.171.036.047.071.095.105.144l3.483 4.97c.034.048.063.098.096.149-.151.044-3.525.062-3.959.023l-.321-.488-.865-1.324-.076-.115c-.221-.321-.416-.381-.779-.229-.164.069-.319.16-.485.223a1.83 1.83 0 0 1-.473.126c-.33.028-.574-.128-.701-.435-.059-.145-.09-.301-.137-.46-.343.19-.731.326-.968.689-.236.365-.489.719-.731 1.08-.184.274-2.038 2.865-2.215 3.143-.05.079-.105.119-.205.119-1.245-.003-2.491-.002-3.737-.003-.025 0-.05-.006-.112-.013.565-.81 2.796-3.913 3.351-4.703l1.67-2.378 1.679-2.39-4.64-6.677Z" fill="#cac9d5" fill-rule="evenodd" data-name="Path 23"/></g><g data-name="Group 47"><path d="M1080.25 1025.314c-.041-.861-.285-1.645-.837-2.319-.343-.418-.761-.747-1.22-1.027a9.308 9.308 0 0 0-1.531-.732c-.226-.086-.254-.128-.235-.368.012-.157.042-.313.056-.47.007-.089-.003-.179-.005-.261-.135-.039-.197.04-.268.093-.194.148-.386.297-.581.444a.307.307 0 0 1-.351.028c-.159-.081-.33-.139-.481-.231-.23-.139-.468-.277-.665-.457-.352-.319-.37-.783-.073-1.156.228-.289.537-.442.893-.5.45-.074.894-.015 1.33.102.175.047.204.11.176.293-.016.104-.036.209-.033.313.004.154.089.226.245.214a.774.774 0 0 0 .209-.053c.086-.033.169-.073.251-.115.148-.077.273-.065.389.065.086.096.187.178.29.273l2.258-2.284c-.181-.165-.345-.306-.499-.458-.181-.179-.398-.242-.644-.25-.169-.005-.338-.03-.512-.047-.005-.099-.011-.177-.012-.255-.003-.154-.066-.263-.217-.318-.186-.068-.366-.151-.554-.212-.882-.286-1.792-.362-2.713-.331a4.77 4.77 0 0 0-1.639.334c-1.562.633-2.537 1.742-2.716 3.456-.1.963.113 1.86.688 2.657.388.539.881.959 1.452 1.291.537.312 1.11.547 1.688.771.504.195 1.005.396 1.502.606.262.111.507.255.718.449a.845.845 0 0 1 .061 1.221c-.11.12-.241.226-.374.321a10.84 10.84 0 0 0-1.627 1.468 23.39 23.39 0 0 1-.529.56.908.908 0 0 1-.201.159c-.166.095-.235.065-.287-.116a.621.621 0 0 1-.022-.155c-.004-.336.006-.672-.009-1.008a6.27 6.27 0 0 0-.085-.822c-.049-.269-.211-.474-.442-.631-.234-.159-.453-.34-.678-.511l-.148-.111-2.29 2.318.081.064c.5.41 1.013.803 1.578 1.12a.743.743 0 0 1 .2.164c.354.28.59.715.75 1.13.193.5.049 1.539.327 1.588.213.038.389-.167.542-.313.258-.245.503-.503.751-.758.254-.26.515-.511.823-.707a1.28 1.28 0 0 1 .709-.207 4.696 4.696 0 0 0 2.7-.824c1.225-.837 1.885-1.977 1.811-3.495Z" fill="#cac9d5" fill-rule="evenodd" data-name="Path 24"/></g><g data-name="Group 48"><path d="m1046.8 1018.233-2.245 2.31c-.077-.109-.144-.205-.213-.299-.07-.096-.142-.191-.214-.285a.534.534 0 0 0-.65-.192c-.172.061-.341.151-.481.265a5.55 5.55 0 0 0-.564.553c-.263.286-.51.587-.771.875a2.813 2.813 0 0 1-.373.351c-.144.109-.238.068-.251-.114a4.292 4.292 0 0 1 .006-.63c.042-.565.11-1.129.057-1.697a3.357 3.357 0 0 0-.062-.389.336.336 0 0 0-.315-.283 1.325 1.325 0 0 0-.333-.001c-.372.054-.743.114-1.112.179a1.966 1.966 0 0 0-.857.387c-1.606 1.219-2.15 3.412-1.061 5.206.245.404.298.802.203 1.246a9.847 9.847 0 0 1-.635 1.93 83.102 83.102 0 0 0-.712 1.651c-.07.169-.11.351-.147.531-.012.06.012.163.053.188.047.027.146.008.2-.026.133-.084.262-.178.378-.285.432-.396.856-.802 1.287-1.199.417-.384.833-.769 1.26-1.142a4.713 4.713 0 0 1 1.039-.681c.217-.107.444-.166.685-.167 1.338-.003 2.377-.599 3.198-1.619.144-.179.271-.37.419-.575l2.274 2.34c-.091.112-.171.215-.256.314-1.065 1.242-2.373 2.1-3.975 2.475a7.589 7.589 0 0 1-3.546-.027 1.22 1.22 0 0 0-.827.081c-.398.185-.752.435-1.094.706-.222.176-.441.358-.677.512-.158.102-.338.181-.519.233-.289.081-.539-.065-.644-.347-.093-.25-.074-.508-.009-.759.095-.369.213-.733.307-1.102a5.02 5.02 0 0 0 .13-.698c.028-.274-.065-.507-.26-.717-1.087-1.165-1.739-2.537-1.894-4.128-.333-3.404 1.65-6.061 4.081-7.188a6.385 6.385 0 0 1 1.377-.484 1.55 1.55 0 0 1 .451-.023c.187.017.27.121.253.309a1.64 1.64 0 0 1-.09.383c-.088.262-.198.517-.277.781a1.17 1.17 0 0 0-.037.409c.015.239.175.396.413.393.154-.003.319-.031.458-.093a6.53 6.53 0 0 0 .764-.412c.699-.437 1.403-.865 2.181-1.15.173-.063.351-.112.529-.158a.604.604 0 0 1 .423.055 7.493 7.493 0 0 1 2.663 2.162c.004.005.004.012.012.045Z" fill="#cac9d5" fill-rule="evenodd" data-name="Path 25"/></g><g data-name="Group 49"><path d="M1069.523 1028.917c.013-.816-.004-2.305-.04-2.431h-.19c-.296 0-.593.01-.889-.002-.397-.019-.77.028-1.115.253-.173.114-.224.088-.328-.092a.282.282 0 0 0-.272-.158c-.066.001-.132-.001-.198-.001-.969 0-1.938.001-2.907 0-.076 0-.152-.007-.231-.01v-2.921c.102.049.186.08.261.126a.636.636 0 0 0 .586.061c.049-.018.101-.031.149-.054.225-.108.463-.135.711-.135 1.371.004 2.742.003 4.113.002.083 0 .166-.006.256-.01v-2.735h-.217c-.428 0-.857.011-1.285-.003-.28-.01-.533.054-.777.183-.279.148-.558.297-.84.44a1.67 1.67 0 0 1-.313.12c-.09.025-.144-.027-.125-.119.02-.096.058-.188.092-.281.11-.294.081-.339-.225-.339l-2.155-.001h-.228c-.004-.084-.009-.148-.01-.212-.001-.263.001-.527-.003-.791-.004-.313-.035-.619-.327-.835.266-.191.509-.387.798-.505.143-.058.304-.101.457-.102 1.239-.008 2.479-.003 3.718-.005.125 0 .235.027.32.123.093.106.206.117.323.059.264-.133.541-.202.838-.19.01.001.021-.013.04-.026v-2.76h-.224c-1.114.001-2.228.005-3.342-.002a1.626 1.626 0 0 0-.899.254 4.079 4.079 0 0 0-.446.326c-.499.416-.91.916-1.321 1.413-.392.473-.807.924-1.292 1.303a1.444 1.444 0 0 1-.396.214c-.2.07-.355-.035-.379-.248a.84.84 0 0 1 .016-.313c.067-.247.154-.489.228-.735.085-.283.177-.565.241-.854.066-.303.093-.613.026-.922-.068-.307-.213-.428-.521-.433a37.95 37.95 0 0 0-.89-.001c-.044 0-.087.012-.144.021v.224c0 .501.008 1.002-.003 1.503a5.138 5.138 0 0 1-.068.825 6.01 6.01 0 0 0-.016 2.102c.065.374.073.76.084 1.141.014.442.003.884.003 1.325l.001 6.447c0 .076.004.152.007.239h4.057c.36 0 .36 0 .366.361.002.136.007.278.147.342.143.066.254-.035.35-.122.133-.119.259-.246.377-.378a.595.595 0 0 1 .488-.206c1.106.007 2.462.003 3.567.003.026-.183-.134-.348-.004-.478Z" fill="#cac9d5" fill-rule="evenodd" data-name="Path 26"/></g></g></svg>