<svg xmlns="http://www.w3.org/2000/svg" width="63.112" height="63.112" viewBox="1184.146 984.633 63.112 63.112"><g data-name="more"><g data-name="Group 210"><g data-name="black line"><g data-name="Group 207"><g data-name="Group 206"><path d="M1215.702 1047.546c-17.29 0-31.358-14.067-31.358-31.358 0-17.29 14.067-31.357 31.358-31.357s31.358 14.067 31.358 31.357c0 17.291-14.067 31.358-31.358 31.358Z" fill="#ceced2" fill-rule="evenodd" data-name="Path 237"/></g></g></g><g data-name="black line"><g data-name="Group 209"><g data-name="Group 208"><path d="M1215.702 1047.744c-17.4 0-31.556-14.156-31.556-31.556s14.156-31.555 31.556-31.555 31.556 14.156 31.556 31.555c0 17.4-14.156 31.556-31.556 31.556Zm0-62.716c-17.182 0-31.16 13.979-31.16 31.16 0 17.182 13.978 31.16 31.16 31.16 17.182 0 31.16-13.978 31.16-31.16 0-17.181-13.978-31.16-31.16-31.16Z" fill="#cac9d5" fill-rule="evenodd" data-name="Path 238"/></g></g></g></g><g data-name="Group 211"><path d="M1198.064 1016.089a4.678 4.678 0 1 1 0 .1z" fill="#cac9d5" fill-rule="evenodd" data-name="Ellipse 11"/><path d="M1211.024 1016.089a4.678 4.678 0 1 1 0 .1z" fill="#cac9d5" fill-rule="evenodd" data-name="Ellipse 12"/><path d="M1223.984 1016.089a4.678 4.678 0 1 1 0 .1z" fill="#cac9d5" fill-rule="evenodd" data-name="Ellipse 13"/></g></g></svg>