<svg xmlns="http://www.w3.org/2000/svg" width="31.944" height="31.579" viewBox="15.401 15.715 31.944 31.579"><g data-name="black line"><g data-name="Group 18"><g data-name="Group 17"><path d="M46.866 29.465 32.379 16.109a1.487 1.487 0 0 0-2.016 0L15.88 29.466a1.485 1.485 0 0 0-.479 1.092v15.249c0 .821.666 1.487 1.487 1.487h10.075c.821 0 1.487-.666 1.487-1.487v-6.985a2.924 2.924 0 0 1 2.921-2.921c1.61 0 2.921 1.31 2.921 2.921v6.985c0 .821.665 1.487 1.486 1.487h10.08c.821 0 1.487-.666 1.487-1.487V30.558c0-.415-.174-.811-.479-1.093ZM44.371 44.32h-7.106v-5.498a5.9 5.9 0 0 0-5.894-5.895 5.9 5.9 0 0 0-5.894 5.895v5.498h-7.102V31.21l12.996-11.986 13 11.986v13.11Z" fill="#cac9d5" fill-rule="evenodd" data-name="Path 7"/></g></g></g></svg>