<svg xmlns="http://www.w3.org/2000/svg" width="63.01" height="63.009" viewBox="1032.133 984.909 63.01 63.009"><g data-name="news"><g data-name="Group 16"><g data-name="black line"><g data-name="Group 13"><g data-name="Group 12"><path d="M1063.638 1047.72c-17.263 0-31.307-14.044-31.307-31.307 0-17.262 14.044-31.307 31.307-31.307 17.263 0 31.307 14.045 31.307 31.307 0 17.263-14.044 31.308-31.307 31.308Z" fill="#ceced2" fill-rule="evenodd" data-name="Path 5"/></g></g></g><g data-name="black line"><g data-name="Group 15"><g data-name="Group 14"><path d="M1063.638 1047.918c-17.372 0-31.505-14.133-31.505-31.505 0-17.371 14.133-31.504 31.505-31.504s31.505 14.133 31.505 31.504c0 17.372-14.133 31.505-31.505 31.505Zm0-62.614c-17.154 0-31.11 13.955-31.11 31.109 0 17.154 13.956 31.11 31.11 31.11s31.11-13.956 31.11-31.11-13.956-31.109-31.11-31.109Z" fill="#cac9d5" fill-rule="evenodd" data-name="Path 6"/></g></g></g></g><g data-name="black line"><g data-name="Group 18"><g data-name="Group 17"><path d="m1079 1014.374-14.488-13.356a1.487 1.487 0 0 0-2.016 0l-14.483 13.357a1.485 1.485 0 0 0-.479 1.092v15.249c0 .821.666 1.487 1.487 1.487h10.075c.821 0 1.487-.666 1.487-1.487v-6.985a2.924 2.924 0 0 1 2.921-2.921c1.61 0 2.921 1.31 2.921 2.921v6.985c0 .821.665 1.487 1.486 1.487h10.08c.821 0 1.487-.666 1.487-1.487v-15.249c0-.415-.174-.811-.479-1.093Zm-2.496 14.855h-7.106v-5.498a5.9 5.9 0 0 0-5.894-5.895 5.9 5.9 0 0 0-5.894 5.895v5.498h-7.102v-13.11l12.996-11.986 13 11.986v13.11Z" fill="#cac9d5" fill-rule="evenodd" data-name="Path 7"/></g></g></g></g></svg>