<svg xmlns="http://www.w3.org/2000/svg" width="37.69" height="47.589" viewBox="13.029 15.223 37.69 47.589"><g data-name="Group 100"><g data-name="Group 195"><g data-name="Intersection 1"><path d="M20.467 60.803c-.795-2.818-.976-5.94.589-8.464 1.722-2.776 5.165-3.84 8.252-4.062.227-.017 4.906-.017 5.135 0 3.087.223 6.53 1.286 8.251 4.062 1.505 2.427 1.395 5.406.678 8.137a31.144 31.144 0 0 1-11.867 2.336c-3.884 0-7.604-.71-11.038-2.01Zm11.408-13.324-.103.001c-5.128 0-8.93-2.17-11.325-5.575a6.67 6.67 0 0 1-2.965-.836 7.708 7.708 0 0 1-1.648-1.223 8.932 8.932 0 0 1-.514-.548c-1.413-1.646-2.29-3.93-2.29-6.458 0-1.046.152-2.093.459-3.093l.013-.04a9.64 9.64 0 0 1 .277-.772c.3-.744.693-1.453 1.173-2.097a9.61 9.61 0 0 1 .325-.407c.3-.354.627-.684.982-.983a7.318 7.318 0 0 1 2.062-1.231c1.05-.405 2.159-.639 3.22-1.013 1.306-.462 2.627-1.01 3.756-1.828.508-.368 1.024-.817 1.305-1.39.122-.22.153-.55.15-.549-.002 0-1.177.428-3.956 1.317-2.702.868-2.515.36-2.503.332 2.406-3.573 6.285-5.863 11.479-5.863.035 0 .069 0 .103.002v-.001l.104-.001c5.128 0 8.929 2.168 11.325 5.574a6.684 6.684 0 0 1 2.566.632c.52.243 1.01.554 1.467.919.15.119.296.243.438.375a8.808 8.808 0 0 1 1.88 2.53c.36.72.638 1.502.82 2.332a10.664 10.664 0 0 1 .244 2.277c0 .496-.035.993-.103 1.483-.078.56-.199 1.111-.367 1.65a9.666 9.666 0 0 1-1.024 2.24 8.547 8.547 0 0 1-1.548 1.857 7.299 7.299 0 0 1-2.25 1.393c-1.049.407-2.157.639-3.218 1.014-1.305.46-2.627 1.01-3.756 1.827-.508.369-1.023.818-1.305 1.39-.122.221-.153.551-.148.549 0 0 1.175-.427 3.955-1.318 2.114-.678 2.46-.515 2.503-.398a.085.085 0 0 1-.001.066c-.102.152-.207.299-.312.446-2.425 3.315-6.192 5.42-11.166 5.42l-.104-.002ZM15.858 33.153c0 2.213 1.089 4.099 2.615 4.83-.694-2.028-1.045-4.274-1.045-6.632 0-.816.043-1.619.129-2.404-1.027.932-1.699 2.469-1.699 4.206Zm18.62-.938a4.445 4.445 0 1 0 8.89.001 4.445 4.445 0 0 0-8.89 0Zm-14.094 0a4.445 4.445 0 1 0 8.89.001 4.445 4.445 0 0 0-8.89 0Zm25.939-.864c0 .815-.043 1.62-.13 2.404 1.027-.934 1.698-2.47 1.698-4.206 0-2.211-1.087-4.098-2.614-4.83.695 2.028 1.046 4.275 1.046 6.632Z" fill="#fff" fill-rule="evenodd"/><path d="M20.467 60.803c-.795-2.818-.976-5.94.589-8.464 1.722-2.776 5.165-3.84 8.252-4.062.227-.017 4.906-.017 5.135 0 3.087.223 6.53 1.286 8.251 4.062 1.505 2.427 1.395 5.406.678 8.137a31.144 31.144 0 0 1-11.867 2.336c-3.884 0-7.604-.71-11.038-2.01Zm11.408-13.324-.103.001c-5.128 0-8.93-2.17-11.325-5.575a6.67 6.67 0 0 1-2.965-.836 7.708 7.708 0 0 1-1.648-1.223 8.932 8.932 0 0 1-.514-.548c-1.413-1.646-2.29-3.93-2.29-6.458 0-1.046.152-2.093.459-3.093l.013-.04a9.64 9.64 0 0 1 .277-.772c.3-.744.693-1.453 1.173-2.097a9.61 9.61 0 0 1 .325-.407c.3-.354.627-.684.982-.983a7.318 7.318 0 0 1 2.062-1.231c1.05-.405 2.159-.639 3.22-1.013 1.306-.462 2.627-1.01 3.756-1.828.508-.368 1.024-.817 1.305-1.39.122-.22.153-.55.15-.549-.002 0-1.177.428-3.956 1.317-2.702.868-2.515.36-2.503.332 2.406-3.573 6.285-5.863 11.479-5.863.035 0 .069 0 .103.002v-.001l.104-.001c5.128 0 8.929 2.168 11.325 5.574a6.684 6.684 0 0 1 2.566.632c.52.243 1.01.554 1.467.919.15.119.296.243.438.375a8.808 8.808 0 0 1 1.88 2.53c.36.72.638 1.502.82 2.332a10.664 10.664 0 0 1 .244 2.277c0 .496-.035.993-.103 1.483-.078.56-.199 1.111-.367 1.65a9.666 9.666 0 0 1-1.024 2.24 8.547 8.547 0 0 1-1.548 1.857 7.299 7.299 0 0 1-2.25 1.393c-1.049.407-2.157.639-3.218 1.014-1.305.46-2.627 1.01-3.756 1.827-.508.369-1.023.818-1.305 1.39-.122.221-.153.551-.148.549 0 0 1.175-.427 3.955-1.318 2.114-.678 2.46-.515 2.503-.398a.085.085 0 0 1-.001.066c-.102.152-.207.299-.312.446-2.425 3.315-6.192 5.42-11.166 5.42l-.104-.002ZM15.858 33.153c0 2.213 1.089 4.099 2.615 4.83-.694-2.028-1.045-4.274-1.045-6.632 0-.816.043-1.619.129-2.404-1.027.932-1.699 2.469-1.699 4.206Zm18.62-.938a4.445 4.445 0 1 0 8.89.001 4.445 4.445 0 0 0-8.89 0Zm-14.094 0a4.445 4.445 0 1 0 8.89.001 4.445 4.445 0 0 0-8.89 0Zm25.939-.864c0 .815-.043 1.62-.13 2.404 1.027-.934 1.698-2.47 1.698-4.206 0-2.211-1.087-4.098-2.614-4.83.695 2.028 1.046 4.275 1.046 6.632Z" stroke-linejoin="round" stroke-linecap="round" stroke="rgba(0,0,0,0 )" fill="transparent"/></g></g></g></svg>