<svg xmlns="http://www.w3.org/2000/svg" width="101.111" height="87.082" viewBox="909 889 101.111 87.082"><g data-name="oli home buttomn"><path d="M1009.453 922.375a27.008 27.008 0 0 0-2.198-6.295c-1.31-2.635-3.027-4.951-5.044-6.831-.38-.355-.773-.69-1.174-1.013a19.7 19.7 0 0 0-3.937-2.48 17.683 17.683 0 0 0-6.883-1.704C983.788 894.855 973.59 889 959.835 889c-.095 0-.186.002-.28.003-.093 0-.185-.003-.279-.003-13.93 0-24.336 6.187-30.791 15.831-.034.078-.535 1.444 6.712-.894 7.456-2.404 10.611-3.558 10.611-3.558.011-.005-.07.887-.397 1.481-.755 1.548-2.14 2.76-3.503 3.753-3.028 2.207-6.572 3.688-10.076 4.934-2.845 1.011-5.82 1.64-8.636 2.735-2.014.782-3.881 1.924-5.532 3.321a22.103 22.103 0 0 0-2.636 2.657c-.3.358-.593.724-.872 1.1a25.359 25.359 0 0 0-3.15 5.662 26.975 26.975 0 0 0-.744 2.08l-.031.107a28.65 28.65 0 0 0-1.231 8.35c0 6.825 2.353 12.991 6.144 17.432.441.517.902 1.01 1.38 1.479a20.483 20.483 0 0 0 4.418 3.306 17.782 17.782 0 0 0 7.952 2.254c6.429 9.197 16.627 15.052 30.382 15.052.095 0 .186-.002.28-.003v-.001c.093 0 .185.004.279.004 13.343 0 23.45-5.68 29.951-14.632.287-.395.568-.793.84-1.2a.257.257 0 0 0 .004-.181c-.118-.315-1.042-.755-6.716 1.076-7.456 2.404-10.611 3.558-10.611 3.558-.011.004.07-.887.398-1.481.754-1.549 2.14-2.76 3.502-3.753 3.027-2.207 6.572-3.688 10.076-4.933 2.845-1.012 5.82-1.642 8.636-2.736 2.014-.783 3.881-1.924 5.533-3.322.17-.144.336-.293.501-.443.299-.269.59-.545.873-.83a23.478 23.478 0 0 0 3.28-4.177c.31-.5.603-1.012.878-1.533a26.613 26.613 0 0 0 1.87-4.515 28.08 28.08 0 0 0 .983-4.456c.183-1.326.278-2.663.278-4.001 0-1.092-.065-2.164-.182-3.217a28.306 28.306 0 0 0-.476-2.931Zm-11.486 16.656c.23-2.12.347-4.287.347-6.49 0-6.364-.944-12.428-2.804-17.902 4.096 1.973 7.014 7.065 7.014 13.036 0 4.691-1.801 8.836-4.557 11.356Zm-19.506-16.158c6.586 0 11.925 5.373 11.925 12s-5.34 12-11.925 12c-6.586 0-11.926-5.373-11.926-12s5.34-12 11.926-12Zm-57.317 3.178a60.083 60.083 0 0 0-.346 6.49c0 6.363.943 12.428 2.803 17.902-4.096-1.973-7.014-7.065-7.014-13.037 0-4.69 1.802-8.835 4.557-11.355Zm19.506 20.822c-6.585 0-11.925-5.373-11.925-12s5.34-12 11.925-12c6.587 0 11.926 5.373 11.926 12s-5.339 12-11.926 12Z" fill="#fff" fill-rule="evenodd" data-name="Path 1"/></g></svg>