<svg xmlns="http://www.w3.org/2000/svg" width="1566" height="834" viewBox="7.999 2 1566 834"><path d="M-629 668h-1494c-4.86 0-9.574-.952-14.013-2.83a35.877 35.877 0 0 1-11.443-7.714A35.894 35.894 0 0 1-2159 632v-762a35.89 35.89 0 0 1 10.544-25.456 35.883 35.883 0 0 1 11.443-7.714A35.777 35.777 0 0 1-2123-166h1494c4.86 0 9.574.952 14.012 2.83a35.887 35.887 0 0 1 11.444 7.714A35.888 35.888 0 0 1-593-129.999V632a35.891 35.891 0 0 1-10.544 25.456 35.88 35.88 0 0 1-11.444 7.715A35.774 35.774 0 0 1-629 668ZM-2121.99-164c-19.305 0-35.011 15.707-35.011 35.012v758.976c0 19.306 15.706 35.012 35.011 35.012h1492.492c19.306 0 35.012-15.706 35.012-35.012v-758.976c0-19.305-15.706-35.012-35.012-35.012h-1492.492Z" fill-rule="evenodd" fill="url(&quot;#a&quot;)" transform="translate(2167 168)" data-name="rim"/><defs><linearGradient x1=".013" y1="1" x2="1" y2=".016" id="a"><stop stop-color="#07061a" offset="0"/><stop stop-color="#0098e9" offset=".494"/><stop stop-color="#cf15a5" offset="1"/></linearGradient></defs></svg>