<svg xmlns="http://www.w3.org/2000/svg" width="25.566" height="28.426" viewBox="1834.875 1006.678 25.566 28.426"><g data-name="Group 164"><g data-name="Group 160"><path d="m1849.18 1019.849 3.99-4.029-15.482-8.796c-.574-.326-1.096-.402-1.54-.31l13.032 13.135Z" fill="#fff" fill-rule="evenodd" data-name="Path 78"/></g><g data-name="Group 161"><path d="M1835.05 1007.652c-.11.282-.175.612-.175.994v24.486c0 .382.063.708.171.986l13.121-13.247-13.117-13.219Z" fill="#fff" fill-rule="evenodd" data-name="Path 79"/></g><g data-name="Group 162"><path d="m1849.181 1021.893-13.043 13.17c.445.099.971.024 1.551-.306l15.509-8.815-4.017-4.049Z" fill="#fff" fill-rule="evenodd" data-name="Path 80"/></g><g data-name="Group 163"><path d="m1859.28 1019.292-4.814-2.737-4.272 4.316 4.301 4.337 4.785-2.719c1.548-.879 1.548-2.319 0-3.197" fill="#fff" fill-rule="evenodd" data-name="Path 81"/></g></g></svg>