<svg xmlns="http://www.w3.org/2000/svg" width="44.224" height="26.833" viewBox="9.176 15.754 44.224 26.833"><g data-name="Group 121"><g data-name="Group 110"><g data-name="Group 107"><g data-name="Group 106"><path d="M31.288 31.027c-4.211 0-7.636-3.426-7.636-7.636 0-4.211 3.425-7.637 7.636-7.637s7.636 3.426 7.636 7.637c0 4.21-3.425 7.636-7.636 7.636Zm0-12.854a5.223 5.223 0 0 0-5.217 5.218 5.223 5.223 0 0 0 5.217 5.217 5.223 5.223 0 0 0 5.217-5.217 5.223 5.223 0 0 0-5.217-5.218Z" fill="#fff" fill-rule="evenodd" data-name="Path 52"/></g></g><g data-name="Group 109"><g data-name="Group 108"><path d="M23.961 41.378v-2.844c0-3.968 3.079-7.352 7.044-7.502 4.169-.157 7.611 3.188 7.611 7.323v3.023a1.21 1.21 0 0 0 2.419 0v-2.802c0-5.453-4.462-10.059-9.914-9.967-5.298.09-9.58 4.427-9.58 9.746v3.023a1.21 1.21 0 0 0 2.42 0Z" fill="#fff" fill-rule="evenodd" data-name="Path 53"/></g></g></g><g data-name="Group 115"><g data-name="Group 112"><g data-name="Group 111"><path d="M16.66 34.625a5.94 5.94 0 0 1-5.933-5.933 5.94 5.94 0 0 1 5.933-5.932 5.94 5.94 0 0 1 5.933 5.932 5.94 5.94 0 0 1-5.933 5.933Zm0-9.446a3.517 3.517 0 0 0-3.513 3.513 3.517 3.517 0 0 0 3.513 3.514 3.517 3.517 0 0 0 3.513-3.514 3.517 3.517 0 0 0-3.513-3.513Z" fill="#fff" fill-rule="evenodd" data-name="Path 54"/></g></g><g data-name="Group 114"><g data-name="Group 113"><path d="M11.596 41.378v-1.53c0-2.775 2.163-5.153 4.936-5.221a5.052 5.052 0 0 1 5.028 3.775c.164.63.757 1.089 1.398.978a1.21 1.21 0 0 0 .97-1.481 7.467 7.467 0 0 0-7.571-5.687c-4.046.16-7.181 3.624-7.181 7.673v1.493a1.21 1.21 0 0 0 2.42 0Z" fill="#fff" fill-rule="evenodd" data-name="Path 55"/></g></g></g><g data-name="Group 120"><g data-name="Group 117"><g data-name="Group 116"><path d="M45.916 34.625a5.94 5.94 0 0 1-5.933-5.933 5.94 5.94 0 0 1 5.933-5.932 5.94 5.94 0 0 1 5.933 5.932 5.94 5.94 0 0 1-5.933 5.933Zm0-9.446a3.517 3.517 0 0 0-3.513 3.513 3.517 3.517 0 0 0 3.513 3.514 3.517 3.517 0 0 0 3.514-3.514 3.517 3.517 0 0 0-3.514-3.513Z" fill="#fff" fill-rule="evenodd" data-name="Path 56"/></g></g><g data-name="Group 119"><g data-name="Group 118"><path d="M39.618 39.38c.641.111 1.234-.348 1.399-.978a5.052 5.052 0 0 1 5.027-3.775c2.773.068 4.937 2.446 4.937 5.221v1.53a1.21 1.21 0 0 0 2.419 0v-1.493c0-4.049-3.135-7.513-7.181-7.673a7.467 7.467 0 0 0-7.571 5.687 1.21 1.21 0 0 0 .97 1.48Z" fill="#fff" fill-rule="evenodd" data-name="Path 57"/></g></g></g></g></svg>