<svg xmlns="http://www.w3.org/2000/svg" width="63.009" height="63.009" viewBox="1108.023 984.909 63.009 63.009"><g data-name="team"><g data-name="black line"><g data-name="Group 103"><g data-name="Group 102"><path d="M1139.527 1047.72c-17.262 0-31.307-14.044-31.307-31.307 0-17.262 14.045-31.307 31.307-31.307 17.263 0 31.308 14.045 31.308 31.307 0 17.263-14.045 31.308-31.308 31.308Z" fill="#ceced2" fill-rule="evenodd" data-name="Path 50"/></g></g></g><g data-name="black line"><g data-name="Group 105"><g data-name="Group 104"><path d="M1139.527 1047.918c-17.371 0-31.504-14.133-31.504-31.505 0-17.371 14.133-31.504 31.504-31.504 17.372 0 31.505 14.133 31.505 31.504 0 17.372-14.133 31.505-31.505 31.505Zm0-62.614c-17.153 0-31.11 13.955-31.11 31.109 0 17.154 13.957 31.11 31.11 31.11 17.154 0 31.11-13.956 31.11-31.11s-13.956-31.109-31.11-31.109Z" fill="#cac9d5" fill-rule="evenodd" data-name="Path 51"/></g></g></g><g data-name="Group 121"><g data-name="Group 110"><g data-name="Group 107"><g data-name="Group 106"><path d="M1139.31 1015.936c-4.21 0-7.635-3.426-7.635-7.636 0-4.211 3.425-7.637 7.636-7.637 4.21 0 7.636 3.426 7.636 7.637 0 4.21-3.425 7.636-7.636 7.636Zm0-12.854a5.223 5.223 0 0 0-5.216 5.218 5.223 5.223 0 0 0 5.217 5.217 5.223 5.223 0 0 0 5.217-5.217 5.223 5.223 0 0 0-5.217-5.218Z" fill="#fff" fill-rule="evenodd" data-name="Path 52"/></g></g><g data-name="Group 109"><g data-name="Group 108"><path d="M1131.984 1026.287v-2.844c0-3.968 3.079-7.352 7.044-7.502 4.169-.157 7.61 3.188 7.61 7.323v3.023a1.21 1.21 0 0 0 2.419 0v-2.802c0-5.453-4.461-10.059-9.913-9.967-5.298.09-9.58 4.427-9.58 9.746v3.023a1.21 1.21 0 0 0 2.42 0Z" fill="#fff" fill-rule="evenodd" data-name="Path 53"/></g></g></g><g data-name="Group 115"><g data-name="Group 112"><g data-name="Group 111"><path d="M1124.683 1019.534a5.94 5.94 0 0 1-5.933-5.933 5.94 5.94 0 0 1 5.933-5.932 5.94 5.94 0 0 1 5.933 5.932 5.94 5.94 0 0 1-5.933 5.933Zm0-9.446a3.517 3.517 0 0 0-3.513 3.513 3.517 3.517 0 0 0 3.513 3.514 3.517 3.517 0 0 0 3.513-3.514 3.517 3.517 0 0 0-3.513-3.513Z" fill="#fff" fill-rule="evenodd" data-name="Path 54"/></g></g><g data-name="Group 114"><g data-name="Group 113"><path d="M1119.619 1026.287v-1.53c0-2.775 2.163-5.153 4.936-5.221a5.052 5.052 0 0 1 5.028 3.775c.164.63.757 1.089 1.398.978a1.21 1.21 0 0 0 .97-1.481 7.467 7.467 0 0 0-7.571-5.687c-4.046.16-7.181 3.624-7.181 7.673v1.493a1.21 1.21 0 0 0 2.42 0Z" fill="#fff" fill-rule="evenodd" data-name="Path 55"/></g></g></g><g data-name="Group 120"><g data-name="Group 117"><g data-name="Group 116"><path d="M1153.939 1019.534a5.94 5.94 0 0 1-5.933-5.933 5.94 5.94 0 0 1 5.933-5.932 5.94 5.94 0 0 1 5.933 5.932 5.94 5.94 0 0 1-5.933 5.933Zm0-9.446a3.517 3.517 0 0 0-3.513 3.513 3.517 3.517 0 0 0 3.513 3.514 3.517 3.517 0 0 0 3.514-3.514 3.517 3.517 0 0 0-3.514-3.513Z" fill="#fff" fill-rule="evenodd" data-name="Path 56"/></g></g><g data-name="Group 119"><g data-name="Group 118"><path d="M1147.64 1024.289c.642.111 1.235-.348 1.4-.978a5.052 5.052 0 0 1 5.027-3.775c2.773.068 4.937 2.446 4.937 5.221v1.53a1.21 1.21 0 0 0 2.419 0v-1.493c0-4.049-3.135-7.513-7.181-7.673a7.467 7.467 0 0 0-7.571 5.687 1.21 1.21 0 0 0 .97 1.48Z" fill="#fff" fill-rule="evenodd" data-name="Path 57"/></g></g></g></g></g></svg>